<svg width="192" height="192" viewBox="0 0 192 192" fill="none" xmlns="http://www.w3.org/2000/svg">
<circle cx="96" cy="96" r="96" fill="#073042"/>
<path d="M57.4992 154.2C51.2992 154.2 46.2993 149.2 46.2993 143L46.1992 110C46.1992 82.5 68.4992 60.1 95.9992 60.2C123.399 60.3 145.599 82.4 145.599 109.8L145.699 143.1C145.699 149.4 140.699 154.4 134.399 154.4L57.4992 154.2Z" fill="#4285F4"/>
<path d="M137.8 163L137.6 107.5C136.4 93.2 128.2 81.1 116.2 74.6L123.1 62.6C123.5 61.9 123.3 61 122.5 60.6C121.8 60.2 120.9 60.4 120.5 61.1L113.5 73.3C108.1 70.8 102.1 69.4 95.5996 69.4C89.1996 69.4 83.0996 70.7 77.7996 73.2L70.7996 61C70.3996 60.3 69.4996 60.1 68.7996 60.4C68.0996 60.8 67.8996 61.7 68.2996 62.4L75.2996 74.4C63.3996 80.8 55.2996 92.9 54.0996 107.2L54.2996 163H137.8Z" fill="white"/>
<path d="M52.2995 95.6C59.9995 100.3 65.0995 108.7 65.0995 118.4C65.0995 128.8 59.0995 137.9 50.3995 142.3C48.3995 143.3 49.5995 153.6 52.2995 152.5C65.6995 147 75.1995 133.8 75.1995 118.5C75.1995 105.4 68.3995 94 58.0995 87.5C53.8995 84.7 49.6995 94.1 52.2995 95.6Z" fill="#4285F4"/>
<path d="M139.699 95.6C131.999 100.3 126.899 108.7 126.899 118.4C126.899 128.8 132.899 137.9 141.599 142.3C143.599 143.3 142.399 153.6 139.699 152.5C126.299 147 116.799 133.8 116.799 118.5C116.799 105.4 123.599 94 133.899 87.5C138.099 84.7 142.199 94.1 139.699 95.6Z" fill="#4285F4"/>
<path d="M107.605 92.082C107.605 93.8891 109.096 95.3773 111.011 95.3773C112.927 95.3773 114.417 93.8891 114.417 92.082" stroke="#3DDC84" stroke-width="2" stroke-linecap="round" stroke-linejoin="round"/>
<path d="M76.0977 92.082C76.0977 93.8891 77.5878 95.3773 79.5037 95.3773C81.4195 95.3773 82.9097 93.8891 82.9097 92.082" stroke="#3DDC84" stroke-width="2" stroke-linecap="round" stroke-linejoin="round"/>
<path fill-rule="evenodd" clip-rule="evenodd" d="M70.6574 80.46C70.6574 80.46 67.2914 83.2584 67.2914 86.0568C67.2914 86.059 67.2914 86.0613 67.2914 86.0635C67.2914 86.0657 67.2914 86.0678 67.2914 86.07C67.2914 87.9267 68.8007 89.436 70.6574 89.436C72.5141 89.436 74.0234 87.9248 74.0234 86.07C74.0234 86.0678 74.0234 86.0657 74.0234 86.0635C74.0234 86.0613 74.0234 86.059 74.0234 86.0568C74.0234 83.1884 70.6574 80.46 70.6574 80.46Z" fill="#073042"/>
<path fill-rule="evenodd" clip-rule="evenodd" d="M64.2629 90.6816C64.2629 90.6816 60.1001 94.1425 60.1001 97.6034C60.1001 97.6061 60.1001 97.6089 60.1001 97.6116C60.1001 97.6143 60.1001 97.617 60.1001 97.6197C60.1001 99.916 61.9667 101.783 64.2629 101.783C66.5592 101.783 68.4258 99.9136 68.4258 97.6197C68.4258 97.6171 68.4258 97.6144 68.4258 97.6117C68.4258 97.6089 68.4258 97.6062 68.4258 97.6034C68.4258 94.056 64.2629 90.6816 64.2629 90.6816Z" fill="#073042"/>
<path fill-rule="evenodd" clip-rule="evenodd" d="M73.6838 97.6064C73.6838 97.6064 70.4964 100.256 70.4964 102.906C70.4964 102.908 70.4964 102.91 70.4964 102.912C70.4964 102.915 70.4964 102.917 70.4964 102.919C70.4964 104.677 71.9256 106.106 73.6838 106.106C75.4419 106.106 76.8711 104.675 76.8711 102.919C76.8711 102.917 76.8711 102.915 76.8711 102.913C76.8711 102.91 76.8711 102.908 76.8711 102.906C76.8711 100.19 73.6838 97.6064 73.6838 97.6064Z" fill="#073042"/>
</svg>
