<svg width="430" height="277" viewBox="0 0 430 277" fill="none" xmlns="http://www.w3.org/2000/svg">
<rect width="430" height="276" fill="#073042"/>
<path d="M101 60.4001C101 55.1001 98.3998 50.2001 94.2998 47.7001C96.4998 42.8001 95.6998 36.7 92.0998 32.6C89.8998 30.1 86.9998 28.8001 83.8998 28.7001C83.2998 23.4001 78.8998 19.3001 73.6998 19.4001C72.5998 19.4001 71.2998 19.5001 70.0998 19.9001C68.7998 17.0001 65.9998 15.7001 63.4998 15.9001C61.5998 16.0001 59.7998 16.8001 58.3998 18.3001C57.0998 16.8001 55.1998 16.0001 53.2998 15.9001C50.7998 15.8001 47.9998 17.1001 46.6998 19.9001C45.4998 19.5001 44.1998 19.4001 43.0998 19.4001C37.8998 19.3001 33.4998 23.4001 32.8998 28.7001C29.7998 28.8001 26.8998 30.2 24.6998 32.6C21.0998 36.7 20.2998 42.8001 22.4998 47.7001C18.3998 50.3001 15.7998 55.1001 15.7998 60.4001C15.7998 65.7001 18.3998 70.5 22.3998 73.1C21.3998 75.3 21.0998 77.8001 21.5998 80.3001C22.5998 86.0001 27.4998 90.2001 32.9998 90.4001C33.6998 95.6001 37.7998 99.4001 42.5998 99.4001C44.1998 99.4001 46.0998 99.3001 47.7998 98.4001C49.1998 100.1 51.1998 100.8 53.0998 100.8C53.1998 100.8 53.2998 100.8 53.3998 100.8C55.2998 100.7 57.0998 99.9001 58.4998 98.4001C59.8998 99.9001 61.6998 100.7 63.5998 100.8C63.6998 100.8 63.7998 100.8 63.8998 100.8C65.7998 100.8 67.7998 100 69.1998 98.4001C70.8998 99.2001 72.7998 99.4001 74.3998 99.4001C79.2998 99.4001 83.2998 95.6001 83.9998 90.4001C89.3998 90.1001 94.1998 86.0001 95.2998 80.3001C95.7998 77.8001 95.4998 75.3 94.4998 73.1C98.3998 70.6 101 65.7001 101 60.4001ZM53.1998 96.9001C51.7998 96.9001 50.1998 96.1001 49.9998 93.7001C49.8998 92.6001 48.9998 91.8001 47.8998 91.9001C46.7998 92.0001 45.9998 92.9001 46.0998 94.0001C46.0998 94.3001 46.1998 94.6001 46.1998 94.8001C45.1998 95.4001 43.7998 95.5001 42.5998 95.5001C39.7998 95.5001 37.3998 93.1001 36.8998 90.0001C40.0998 89.0001 42.3998 86.7001 43.2998 83.5001C43.5998 82.4001 42.9998 81.3001 41.8998 81.0001C40.7998 80.7001 39.6998 81.3001 39.3998 82.4001C38.5998 85.3001 36.1998 86.2001 34.3998 86.5001C30.2998 87.1001 26.1998 84.0001 25.3998 79.7001C24.9998 77.7001 25.3998 75.7001 26.3998 73.9001C26.5998 73.7001 26.7998 73.4 26.9998 73.1V73.0001C27.1998 72.8001 27.2998 72.6001 27.4998 72.4001C28.1998 71.6001 28.1998 70.3 27.2998 69.6C26.4998 68.9 25.1998 68.9001 24.4998 69.8001C21.5998 67.9001 19.6998 64.4001 19.6998 60.5001C19.6998 56.6001 21.5998 53 24.5998 51.1C24.5998 51.1 24.5998 51.2001 24.6998 51.2001L26.2998 52.9001C26.6998 53.3001 27.1998 53.6 27.7998 53.6C28.2998 53.6 28.6998 53.4 29.0998 53.1C29.8998 52.4 29.9998 51.1001 29.2998 50.3001L27.6998 48.6C27.3998 48.3 27.1998 47.9 26.8998 47.6L26.7998 47.5001C24.3998 43.9001 24.6998 38.7001 27.5998 35.4001C29.0998 33.7001 31.0998 32.8001 33.1998 32.8001C35.2998 32.8001 37.2998 33.7001 38.7998 35.4001C39.4998 36.2001 40.7998 36.3 41.5998 35.6C42.3998 34.9 42.4998 33.6001 41.7998 32.8001C40.3998 31.2001 38.6998 30.1001 36.7998 29.4001C37.0998 26.1001 39.7998 23.5001 42.8998 23.5001H42.9998C44.3998 23.5001 45.2998 23.7001 45.9998 24.0001V24.8001C45.9998 25.9001 46.8998 26.8001 47.9998 26.8001C49.0998 26.8001 49.9998 25.9001 49.9998 24.8001V23.2001C50.1998 20.8001 51.7998 20.0001 53.1998 20.0001C54.7998 20.1001 56.4998 21.3001 56.4998 23.9001V25.8001C56.4998 28.8001 54.2998 31.2001 51.4998 31.2001C50.3998 31.2001 49.4998 32.1001 49.4998 33.2001C49.4998 34.3001 50.3998 35.2001 51.4998 35.2001C53.2998 35.2001 55.0998 34.6 56.4998 33.6V42.9001C55.0998 41.9001 53.3998 41.3001 51.4998 41.3001C49.6998 41.3001 48.0998 41.9001 46.6998 42.8001C46.6998 42.8001 46.6998 42.8001 46.5998 42.8001L46.4998 42.9001L46.3998 43.0001C44.7998 44.3001 42.7998 44.9 40.7998 44.6C38.7998 44.3 36.9998 43.2001 35.7998 41.5001C35.1998 40.6001 33.8998 40.4001 32.9998 41.0001C32.0998 41.6001 31.8998 42.9001 32.4998 43.8001C34.3998 46.4001 37.0998 48.1001 40.1998 48.5001C40.6998 48.6001 41.2998 48.6 41.7998 48.6C42.0998 48.6 43.0998 48.6 42.7998 48.6C46.6998 48.6 48.4998 46.1 51.6998 46.1C54.8998 46.1 56.4998 47.7001 56.4998 50.7001V83.8001V87.8001V93.3001C56.4998 95.7001 54.7998 96.9001 53.1998 96.9001ZM92.0998 69.7001C91.3998 68.9001 90.0998 68.8001 89.2998 69.5001C88.4998 70.2001 88.3998 71.5001 89.0998 72.3001C89.3998 72.6001 89.5998 72.9001 89.7998 73.2001L89.8998 73.3001C91.0998 75.1001 91.5998 77.3001 91.1998 79.5001C90.3998 83.8001 86.2998 86.9001 82.1998 86.3001C80.6998 86.1001 78.0998 85.3001 77.1998 82.2001C76.8998 81.1001 75.7998 80.5001 74.6998 80.8001C73.5998 81.1001 72.9998 82.2001 73.2998 83.3001C74.1998 86.5001 76.5998 88.9001 79.7998 89.8001C79.2998 92.9001 76.8998 95.3001 74.0998 95.3001C72.8998 95.3001 71.4998 95.2001 70.4998 94.6001C70.4998 94.3 70.5998 94.1001 70.5998 93.8001C70.6998 92.7001 69.8998 91.7001 68.7998 91.7001C67.6998 91.6001 66.6998 92.4001 66.6998 93.5001C66.4998 96.0001 64.8998 96.8001 63.4998 96.7001C61.8998 96.6001 60.1998 95.4001 60.1998 92.8001V87.3001V83.3001V50.5001C60.1998 47.5001 61.7998 45.9001 64.9998 45.9001C68.1998 45.9001 69.9998 48.4001 73.8998 48.4001C73.5998 48.4001 74.5998 48.4001 74.8998 48.4001C75.3998 48.4001 75.8998 48.4001 76.4998 48.3001C79.5998 47.9001 82.2998 46.2 84.1998 43.6C84.7998 42.7 84.5998 41.5001 83.6998 40.8001C82.7998 40.2001 81.5998 40.4001 80.8998 41.3001C79.6998 43.0001 77.8998 44.1001 75.8998 44.4001C73.8998 44.7001 71.8998 44.1001 70.2998 42.8001L70.1998 42.7001L70.0998 42.6C70.0998 42.6 70.0998 42.6 69.9998 42.6C68.5998 41.7 66.8998 41.1 65.1998 41.1C63.3998 41.1 61.5998 41.7001 60.1998 42.7001V33.4001C61.5998 34.4001 63.2998 35.0001 65.1998 35.0001C66.2998 35.0001 67.1998 34.1001 67.1998 33.0001C67.1998 31.9001 66.2998 31.0001 65.1998 31.0001C62.3998 31.0001 60.1998 28.6 60.1998 25.6V23.7001C60.1998 21.1001 61.7998 19.9001 63.4998 19.8001C64.8998 19.8001 66.3998 20.6001 66.6998 23.0001V24.6C66.6998 25.7 67.5998 26.6 68.6998 26.6C69.7998 26.6 70.6998 25.7 70.6998 24.6V23.8001C71.2998 23.5001 72.2998 23.3001 73.6998 23.3001C76.8998 23.2001 79.5998 25.8001 79.8998 29.2001C77.9998 29.8001 76.2998 31 74.8998 32.6C74.1998 33.4 74.1998 34.7001 75.0998 35.4001C75.8998 36.1001 77.1998 36.1001 77.8998 35.2001C79.3998 33.5001 81.3998 32.6 83.4998 32.6C85.5998 32.6 87.5998 33.5001 89.0998 35.2001C91.9998 38.5001 92.2998 43.6001 89.8998 47.3001L89.7998 47.4001C89.5998 47.7001 89.2998 48.1001 88.9998 48.4001L87.3998 50.1C86.6998 50.9 86.6998 52.2001 87.5998 52.9001C87.9998 53.2001 88.4998 53.4001 88.8998 53.4001C89.3998 53.4001 89.9998 53.2001 90.3998 52.7001L91.9998 51.0001C91.9998 51.0001 91.9998 50.9001 92.0998 50.9001C95.0998 52.8001 96.9998 56.3001 96.9998 60.3001C97.0998 64.4001 95.0998 68.0001 92.0998 69.7001C92.1998 69.8001 92.1998 69.8001 92.0998 69.7001Z" fill="#3DDC84"/>
<path d="M77.7997 61.8002C77.6997 61.9002 77.5997 62.0002 77.4997 62.1002C76.9997 62.4002 76.4997 62.7002 75.9997 63.0002C75.4997 63.2002 74.8997 63.4002 74.2997 63.6002C73.6997 63.7002 73.0997 63.8002 72.4997 63.8002C71.8997 63.8002 71.2997 63.7002 70.6997 63.6002C70.0997 63.5002 69.4997 63.3002 68.9997 63.0002C68.4997 62.8002 67.9997 62.5002 67.4997 62.1002C66.9997 61.8002 66.5997 61.4002 66.1997 60.9002C65.7997 60.5002 65.3997 60.0002 65.0997 59.5002C64.7997 59.0002 64.4997 58.5002 64.2997 57.9002C64.0997 57.3002 63.8997 56.7002 63.7997 56.1002C63.5997 55.0002 64.2997 54.0002 65.3997 53.8002C66.4997 53.6002 67.4997 54.3002 67.6997 55.4002C67.7997 55.8002 67.8997 56.1002 67.9997 56.4002C68.0997 56.7002 68.2997 57.0002 68.4997 57.3002C68.6997 57.6002 68.8997 57.9002 69.0997 58.1002C69.2997 58.3002 69.5997 58.6002 69.7997 58.8002C70.0997 59.0002 70.2997 59.2002 70.5997 59.3002C70.8997 59.4002 71.1997 59.5002 71.4997 59.6002C72.0997 59.7002 72.7997 59.7002 73.4997 59.6002C73.7997 59.5002 74.0997 59.4002 74.3997 59.3002C74.6997 59.2002 74.9997 59.0002 75.1997 58.8002C75.4997 58.6002 75.6997 58.4002 75.8997 58.1002C76.0997 57.9002 76.2997 57.6002 76.4997 57.3002C76.6997 57.0002 76.7997 56.7002 76.9997 56.4002C77.0997 56.1002 77.1997 55.7002 77.2997 55.4002C77.4997 54.3002 78.5997 53.6002 79.5997 53.8002C80.6997 54.0002 81.3997 55.0002 81.1997 56.1002C81.0997 56.7002 80.8997 57.3002 80.6997 57.9002C80.5997 58.2002 80.4997 58.4002 80.2997 58.7002C80.2997 58.7002 78.9997 61.0002 77.7997 61.8002Z" fill="#3DDC84"/>
<path d="M49.7997 60.8002C49.6997 60.9002 49.5997 61.0002 49.4997 61.1002C48.9997 61.4002 48.4997 61.7002 47.9997 62.0002C47.4997 62.2002 46.8997 62.4002 46.2997 62.6002C45.6997 62.7002 45.0997 62.8002 44.4997 62.8002C43.8997 62.8002 43.2997 62.7002 42.6997 62.6002C42.0997 62.5002 41.4997 62.3002 40.9997 62.0002C40.4997 61.8002 39.9997 61.5002 39.4997 61.1002C38.9997 60.8002 38.5997 60.4002 38.1997 59.9002C37.7997 59.5002 37.3997 59.0002 37.0997 58.5002C36.7997 58.0002 36.4997 57.5002 36.2997 56.9002C36.0997 56.3002 35.8997 55.7002 35.7997 55.1002C35.5997 54.0002 36.2997 53.0002 37.3997 52.8002C38.4997 52.6002 39.4997 53.3002 39.6997 54.4002C39.7997 54.8002 39.8997 55.1002 39.9997 55.4002C40.0997 55.7002 40.2997 56.0002 40.4997 56.3002C40.6997 56.6002 40.8997 56.9002 41.0997 57.1002C41.2997 57.3002 41.5997 57.6002 41.7997 57.8002C42.0997 58.0002 42.2997 58.2002 42.5997 58.3002C42.8997 58.4002 43.1997 58.5002 43.4997 58.6002C44.0997 58.7002 44.7997 58.7002 45.4997 58.6002C45.7997 58.5002 46.0997 58.4002 46.3997 58.3002C46.6997 58.2002 46.9997 58.0002 47.1997 57.8002C47.4997 57.6002 47.6997 57.4002 47.8997 57.1002C48.0997 56.9002 48.2997 56.6002 48.4997 56.3002C48.6997 56.0002 48.7997 55.7002 48.9997 55.4002C49.0997 55.1002 49.1997 54.7002 49.2997 54.4002C49.4997 53.3002 50.5997 52.6002 51.5997 52.8002C52.6997 53.0002 53.3997 54.0002 53.1997 55.1002C53.0997 55.7002 52.8997 56.3002 52.6997 56.9002C52.5997 57.2002 52.4997 57.4002 52.2997 57.7002C52.2997 57.7002 50.9997 60.0002 49.7997 60.8002Z" fill="#3DDC84"/>
<path d="M33.0996 66.8001C30.1996 66.8001 27.2996 65.2001 24.6996 62.0001C23.9996 61.2001 24.0996 59.9001 24.9996 59.2001C25.7996 58.5001 27.0996 58.6001 27.7996 59.5001C29.6996 61.8001 31.5996 63.0001 33.3996 62.9001C35.8996 62.8001 37.6996 60.2001 37.6996 60.1001C38.2996 59.2001 39.4996 58.9001 40.4996 59.5001C41.3996 60.1001 41.6996 61.3001 41.0996 62.3001C40.9996 62.5001 38.1996 66.6001 33.6996 66.8001C33.3996 66.8001 33.2996 66.8001 33.0996 66.8001Z" fill="#3DDC84"/>
<path d="M83.5996 66.8001C80.6996 66.8001 77.7996 65.2001 75.1996 62.0001C74.4996 61.2001 74.5996 59.9001 75.4996 59.2001C76.2996 58.5001 77.5996 58.6001 78.2996 59.5001C80.1996 61.8001 82.0996 63.0001 83.8996 62.9001C86.3996 62.8001 88.1996 60.2001 88.1996 60.1001C88.7996 59.2001 90.0996 58.9001 90.9996 59.5001C91.8996 60.1001 92.1996 61.3001 91.5996 62.3001C91.4996 62.5001 88.6996 66.6001 84.1996 66.8001C83.8996 66.8001 83.7996 66.8001 83.5996 66.8001Z" fill="#3DDC84"/>
<path d="M51.6001 83.4001C51.5001 84.3001 50.6001 84.9001 49.7001 84.9001C49.5001 84.9001 49.4001 84.9001 49.2001 84.8001C48.1001 84.5001 47.5001 83.4001 47.8001 82.4001C48.7001 79.1001 46.9001 75.7001 43.8001 74.7001C41.5001 74.0001 39.0001 75.0001 37.6001 77.2001L35.9001 80.2001C35.4001 81.2001 34.1001 81.5001 33.2001 80.9001C32.3001 80.3001 31.9001 79.1001 32.5001 78.2001L34.3001 75.2001C34.3001 75.2001 34.3001 75.2 34.3001 75.1C36.6001 71.4 40.9001 69.7001 45.0001 70.9001C44.9001 70.9001 53.1001 73.4001 51.6001 83.4001Z" fill="#3DDC84"/>
<path d="M49.5002 70C49.2002 70.2 49.0002 70.4 48.7002 70.6L49.5002 70Z" fill="#3DDC84"/>
<path d="M65.3994 83.4001C65.4994 84.3001 66.3994 84.9001 67.2994 84.9001C67.4994 84.9001 67.5994 84.9001 67.7994 84.8001C68.8994 84.5001 69.4994 83.4001 69.1994 82.4001C68.2994 79.1001 70.0994 75.7001 73.1994 74.7001C75.4994 74.0001 77.9994 75.0001 79.3994 77.2001L81.0994 80.2001C81.5994 81.2001 82.8994 81.5001 83.7994 80.9001C84.6994 80.3001 85.0994 79.1001 84.4994 78.2001L82.6994 75.2001C82.6994 75.2001 82.6994 75.2 82.6994 75.1C80.3994 71.4 76.0994 69.7001 71.9994 70.9001C71.9994 70.9001 63.7994 73.4001 65.3994 83.4001Z" fill="#3DDC84"/>
<path d="M413.1 51H358.8C351 51 344.7 44.7 344.7 36.9C344.7 29.1 351 22.8 358.8 22.8C359 22.8 359.1 22.8 359.3 22.8C360.4 15.1 367 9.09998 375 9.09998C376.5 9.09998 378 9.30001 379.4 9.70001C383 4.00001 389.3 0.5 396.1 0.5C406 0.5 414.3 7.80002 415.7 17.4C423.8 18.6 429.9 25.6 429.9 34C430 43.4 422.4 51 413.1 51Z" fill="#D7EFFE"/>
<path d="M316.399 23.8H315.999C314.899 23.8 313.999 22.9 313.999 21.8C313.999 20.7 314.899 19.8 315.999 19.8H316.399C317.499 19.8 318.399 20.7 318.399 21.8C318.399 22.9 317.499 23.8 316.399 23.8ZM307.899 23.8H307.299C306.199 23.8 305.299 22.9 305.299 21.8C305.299 20.7 306.199 19.8 307.299 19.8H307.999C309.099 19.8 309.999 20.7 309.999 21.8C309.999 22.9 308.999 23.8 307.899 23.8ZM299.199 23.8H298.499C297.399 23.8 296.499 22.9 296.499 21.8C296.499 20.7 297.399 19.8 298.499 19.8H299.199C300.299 19.8 301.199 20.7 301.199 21.8C301.199 22.9 300.299 23.8 299.199 23.8ZM290.499 23.8H289.799C288.699 23.8 287.799 22.9 287.799 21.8C287.799 20.7 288.699 19.8 289.799 19.8H290.499C291.599 19.8 292.499 20.7 292.499 21.8C292.499 22.9 291.599 23.8 290.499 23.8ZM281.799 23.8H281.099C279.999 23.8 279.099 22.9 279.099 21.8C279.099 20.7 279.999 19.8 281.099 19.8H281.799C282.899 19.8 283.799 20.7 283.799 21.8C283.799 22.9 282.899 23.8 281.799 23.8ZM273.099 23.8H272.399C271.299 23.8 270.399 22.9 270.399 21.8C270.399 20.7 271.299 19.8 272.399 19.8H273.099C274.199 19.8 275.099 20.7 275.099 21.8C275.099 22.9 274.199 23.8 273.099 23.8ZM264.399 23.8H263.699C262.599 23.8 261.699 22.9 261.699 21.8C261.699 20.7 262.599 19.8 263.699 19.8H264.399C265.499 19.8 266.399 20.7 266.399 21.8C266.399 22.9 265.499 23.8 264.399 23.8ZM255.599 23.8H254.899C253.799 23.8 252.899 22.9 252.899 21.8C252.899 20.7 253.799 19.8 254.899 19.8H255.599C256.699 19.8 257.599 20.7 257.599 21.8C257.599 22.9 256.699 23.8 255.599 23.8ZM246.899 23.8H246.299C245.199 23.8 244.299 22.9 244.299 21.8C244.299 20.7 245.199 19.8 246.299 19.8H246.999C248.099 19.8 248.999 20.7 248.999 21.8C248.999 22.9 247.999 23.8 246.899 23.8ZM238.199 23.8H237.499C236.399 23.8 235.499 22.9 235.499 21.8C235.499 20.7 236.399 19.8 237.499 19.8H238.199C239.299 19.8 240.199 20.7 240.199 21.8C240.199 22.9 239.299 23.8 238.199 23.8ZM229.499 23.8H228.799C227.699 23.8 226.799 22.9 226.799 21.8C226.799 20.7 227.699 19.8 228.799 19.8H229.499C230.599 19.8 231.499 20.7 231.499 21.8C231.499 22.9 230.599 23.8 229.499 23.8ZM220.799 23.8H220.099C218.999 23.8 218.099 22.9 218.099 21.8C218.099 20.7 218.999 19.8 220.099 19.8H220.799C221.899 19.8 222.799 20.7 222.799 21.8C222.799 22.9 221.899 23.8 220.799 23.8ZM212.099 23.8H211.399C210.299 23.8 209.399 22.9 209.399 21.8C209.399 20.7 210.299 19.8 211.399 19.8H212.099C213.199 19.8 214.099 20.7 214.099 21.8C214.099 22.9 213.199 23.8 212.099 23.8ZM203.399 23.8H202.699C201.599 23.8 200.699 22.9 200.699 21.8C200.699 20.7 201.599 19.8 202.699 19.8H203.399C204.499 19.8 205.399 20.7 205.399 21.8C205.399 22.9 204.499 23.8 203.399 23.8ZM194.599 23.8H193.899C192.799 23.8 191.899 22.9 191.899 21.8C191.899 20.7 192.799 19.8 193.899 19.8H194.599C195.699 19.8 196.599 20.7 196.599 21.8C196.599 22.9 195.699 23.8 194.599 23.8Z" fill="#3DDC84"/>
<path d="M123.999 51.6C123.499 51.6 122.999 51.4 122.599 51C121.799 50.2 121.799 49 122.599 48.2L131.099 39.7H118.299C117.499 39.7 116.799 39.2 116.499 38.5C116.199 37.8 116.399 36.9 116.899 36.3L128.599 24.6C129.399 23.8 130.599 23.8 131.399 24.6C132.199 25.4 132.199 26.6 131.399 27.4L123.099 35.7H135.899C136.699 35.7 137.399 36.2 137.699 36.9C137.999 37.6 137.799 38.5 137.299 39.1L125.399 51C124.999 51.4 124.499 51.6 123.999 51.6Z" fill="white"/>
<path d="M0 136.5V134.5C0 133.4 0.9 132.5 2 132.5H98.3C99.4 132.5 100.3 133.4 100.3 134.5V274.1C100.3 275.2 99.4 276.1 98.3 276.1C97.2 276.1 96.3 275.2 96.3 274.1V136.5H4H0Z" fill="#3DDC84"/>
<path d="M4 136.5V274.1C4 275.2 3.1 276.1 2 276.1C0.9 276.1 0 275.2 0 274.1V136.5H4Z" fill="#3DDC84"/>
<path d="M2.2998 143H105.9C107 143 107.9 142.1 107.9 141C107.9 139.9 107 139 105.9 139H2.2998C1.1998 139 0.299805 139.9 0.299805 141C0.299805 142.1 1.1998 143 2.2998 143Z" fill="#3DDC84"/>
<path d="M54 263.9V248.7C54 247.6 54.9 246.7 56 246.7H71.2C72.3 246.7 73.2 247.6 73.2 248.7V263.9C73.2 265 72.3 265.9 71.2 265.9H56C54.9 265.9 54 265 54 263.9Z" fill="#EA5426"/>
<path d="M27 263.9V248.7C27 247.6 27.9 246.7 29 246.7H44.2C45.3 246.7 46.2 247.6 46.2 248.7V263.9C46.2 265 45.3 265.9 44.2 265.9H29C27.9 265.9 27 265 27 263.9Z" fill="#EA5426"/>
<path d="M54 213V197.8C54 196.7 54.9 195.8 56 195.8H71.2C72.3 195.8 73.2 196.7 73.2 197.8V213C73.2 214.1 72.3 215 71.2 215H56C54.9 215 54 214.2 54 213Z" fill="#EA5426"/>
<path d="M27 213V197.8C27 196.7 27.9 195.8 29 195.8H44.2C45.3 195.8 46.2 196.7 46.2 197.8V213C46.2 214.1 45.3 215 44.2 215H29C27.9 215 27 214.2 27 213Z" fill="#EA5426"/>
<path d="M54 179.7V164.5C54 163.4 54.9 162.5 56 162.5H71.2C72.3 162.5 73.2 163.4 73.2 164.5V179.7C73.2 180.8 72.3 181.7 71.2 181.7H56C54.9 181.7 54 180.8 54 179.7Z" fill="#EA5426"/>
<path d="M27 179.7V164.5C27 163.4 27.9 162.5 29 162.5H44.2C45.3 162.5 46.2 163.4 46.2 164.5V179.7C46.2 180.8 45.3 181.7 44.2 181.7H29C27.9 181.7 27 180.8 27 179.7Z" fill="#EA5426"/>
<path d="M98.8996 234H3.59961C2.49961 234 1.59961 233.1 1.59961 232C1.59961 230.9 2.49961 230 3.59961 230H98.9996C100.1 230 100.1 234 98.8996 234Z" fill="#3DDC84"/>
<path d="M329.7 174.5V172.5C329.7 171.4 330.6 170.5 331.7 170.5H428C429.1 170.5 430 171.4 430 172.5V274.5C430 275.6 429.1 276.5 428 276.5C426.9 276.5 426 275.6 426 274.5V174.5H333.7H329.7Z" fill="#3DDC84"/>
<path d="M333.7 174.5V274.5C333.7 275.6 332.8 276.5 331.7 276.5C330.6 276.5 329.7 275.6 329.7 274.5V174.5H333.7Z" fill="#3DDC84"/>
<path d="M324 181H427.6C428.7 181 429.6 180.1 429.6 179C429.6 177.9 428.7 177 427.6 177H324C322.9 177 322 177.9 322 179C322 180.1 322.9 181 324 181Z" fill="#3DDC84"/>
<path d="M383.7 251V235.8C383.7 234.7 384.6 233.8 385.7 233.8H400.9C402 233.8 402.9 234.7 402.9 235.8V251C402.9 252.1 402 253 400.9 253H385.7C384.6 253 383.7 252.2 383.7 251Z" fill="#EA5426"/>
<path d="M356.7 251V235.8C356.7 234.7 357.6 233.8 358.7 233.8H373.9C375 233.8 375.9 234.7 375.9 235.8V251C375.9 252.1 375 253 373.9 253H358.7C357.6 253 356.7 252.2 356.7 251Z" fill="#EA5426"/>
<path d="M383.7 217.7V202.5C383.7 201.4 384.6 200.5 385.7 200.5H400.9C402 200.5 402.9 201.4 402.9 202.5V217.7C402.9 218.8 402 219.7 400.9 219.7H385.7C384.6 219.7 383.7 218.8 383.7 217.7Z" fill="#EA5426"/>
<path d="M356.7 217.7V202.5C356.7 201.4 357.6 200.5 358.7 200.5H373.9C375 200.5 375.9 201.4 375.9 202.5V217.7C375.9 218.8 375 219.7 373.9 219.7H358.7C357.6 219.7 356.7 218.8 356.7 217.7Z" fill="#EA5426"/>
<path d="M375.8 88.8999L371.4 88.1999C370.1 87.9999 369.2 87.3999 368.8 86.5999C368.5 85.7999 368.7 84.6999 369.5 83.5999L372.1 79.9999C373.1 78.6999 372.9 76.6999 371.7 75.5999L367.5 71.3999C366.9 70.7999 366 70.3999 365 70.3999C364.3 70.3999 363.6 70.5999 363 70.9999L359.4 73.5999C358.6 74.0999 357.9 74.3999 357.2 74.3999C356 74.3999 355.1 73.3999 354.8 71.6999L354.1 67.2999C353.8 65.6999 352.3 64.3999 350.7 64.3999H344.7C343.1 64.3999 341.6 65.6999 341.3 67.2999L340.6 71.6999C340.3 73.3999 339.4 74.3999 338.2 74.3999C337.5 74.3999 336.8 74.0999 336 73.5999L332.4 70.9999C331.8 70.5999 331.1 70.3999 330.4 70.3999C329.5 70.3999 328.6 70.7999 327.9 71.3999L323.7 75.5999C322.5 76.7999 322.4 78.6999 323.3 79.9999L325.9 83.5999C326.7 84.6999 326.9 85.6999 326.6 86.5999C326.3 87.3999 325.3 87.9999 324 88.1999L319.6 88.8999C318 89.1999 316.7 90.6999 316.7 92.2999V98.2999C316.7 99.8999 318 101.4 319.6 101.7L324 102.4C325.3 102.6 326.2 103.2 326.6 104C326.9 104.8 326.7 105.9 325.9 107L323.3 110.6C322.3 111.9 322.5 113.9 323.7 115L327.9 119.2C328.5 119.8 329.4 120.2 330.4 120.2C331.1 120.2 331.8 120 332.4 119.6L336 117C336.8 116.5 337.5 116.2 338.2 116.2C339.4 116.2 340.3 117.2 340.6 118.9L341.3 123.3C341.6 124.9 343.1 126.2 344.7 126.2H350.7C352.3 126.2 353.8 124.9 354.1 123.3L354.8 118.9C355.1 117.2 356 116.2 357.2 116.2C357.9 116.2 358.6 116.5 359.4 117L363 119.6C363.6 120 364.3 120.2 365 120.2C365.9 120.2 366.8 119.8 367.5 119.2L371.7 115C372.9 113.8 373 111.9 372.1 110.6L369.5 107C368.7 105.9 368.5 104.9 368.8 104C369.1 103.1 370.1 102.6 371.4 102.4L375.8 101.7C377.4 101.4 378.7 99.8999 378.7 98.2999V92.2999C378.7 90.6999 377.5 89.1999 375.8 88.8999ZM347.8 104.3C342.8 104.3 338.8 100.2 338.8 95.2999C338.8 90.2999 342.9 86.2999 347.8 86.2999C352.8 86.2999 356.8 90.3999 356.8 95.2999C356.8 100.3 352.8 104.3 347.8 104.3Z" fill="#1769E0"/>
<path d="M413 132L410.1 131.5C409.2 131.4 408.6 131 408.4 130.4C408.2 129.9 408.3 129.2 408.8 128.5L410.5 126.1C411.1 125.2 411 124 410.3 123.2L407.5 120.4C407.1 120 406.5 119.8 405.9 119.8C405.4 119.8 405 119.9 404.6 120.2L402.2 121.9C401.7 122.3 401.2 122.4 400.8 122.4C400 122.4 399.4 121.8 399.2 120.6L398.7 117.7C398.5 116.6 397.5 115.8 396.5 115.8H392.6C391.5 115.8 390.6 116.6 390.4 117.7L389.9 120.6C389.7 121.7 389.1 122.4 388.3 122.4C387.9 122.4 387.4 122.2 386.9 121.9L384.5 120.2C384.1 119.9 383.7 119.8 383.2 119.8C382.6 119.8 382 120 381.6 120.4L378.8 123.2C378 124 377.9 125.2 378.6 126.1L380.3 128.5C380.8 129.2 381 129.9 380.7 130.4C380.5 130.9 379.9 131.3 379 131.5L376.1 132C375 132.2 374.2 133.2 374.2 134.2V138.1C374.2 139.2 375 140.1 376.1 140.3L379 140.8C379.9 140.9 380.5 141.3 380.7 141.9C380.9 142.4 380.8 143.1 380.3 143.8L378.6 146.2C378 147.1 378.1 148.3 378.8 149.1L381.6 151.9C382 152.3 382.6 152.5 383.2 152.5C383.7 152.5 384.1 152.4 384.5 152.1L386.9 150.4C387.4 150.1 387.9 149.9 388.3 149.9C389.1 149.9 389.7 150.5 389.9 151.7L390.4 154.6C390.6 155.7 391.6 156.5 392.6 156.5H396.5C397.6 156.5 398.5 155.7 398.7 154.6L399.2 151.7C399.4 150.6 400 149.9 400.8 149.9C401.2 149.9 401.7 150.1 402.2 150.4L404.6 152.1C405 152.4 405.4 152.5 405.9 152.5C406.5 152.5 407.1 152.3 407.5 151.9L410.3 149.1C411.1 148.3 411.2 147.1 410.5 146.2L408.8 143.8C408.3 143.1 408.1 142.4 408.4 141.9C408.6 141.4 409.2 141 410.1 140.8L413 140.3C414.1 140.1 414.9 139.1 414.9 138.1V134.2C414.9 133.1 414.1 132.2 413 132ZM394.7 142.3C391.3 142.3 388.6 139.6 388.6 136.2C388.6 132.8 391.3 130.1 394.7 130.1C398.1 130.1 400.8 132.8 400.8 136.2C400.8 139.5 398 142.3 394.7 142.3Z" fill="#1769E0"/>
<path d="M124.5 237.6V219.9C124.5 218.8 125.4 217.9 126.5 217.9C127.6 217.9 128.5 218.8 128.5 219.9V237.6C128.5 238.7 127.6 239.6 126.5 239.6C125.4 239.6 124.5 238.7 124.5 237.6Z" fill="#3DDC84"/>
<path d="M115.7 228.7C115.7 227.6 116.6 226.7 117.7 226.7H135.3C136.4 226.7 137.3 227.6 137.3 228.7C137.3 229.8 136.4 230.7 135.3 230.7H117.6C116.6 230.7 115.7 229.8 115.7 228.7Z" fill="#3DDC84"/>
<path d="M124.5 237.6V219.9C124.5 218.8 125.4 217.9 126.5 217.9C127.6 217.9 128.5 218.8 128.5 219.9V237.6C128.5 238.7 127.6 239.6 126.5 239.6C125.4 239.6 124.5 238.7 124.5 237.6Z" fill="#3DDC84"/>
<path d="M115.7 228.7C115.7 227.6 116.6 226.7 117.7 226.7H135.3C136.4 226.7 137.3 227.6 137.3 228.7C137.3 229.8 136.4 230.7 135.3 230.7H117.6C116.6 230.7 115.7 229.8 115.7 228.7Z" fill="#3DDC84"/>
<path d="M124.5 274.1V256.4C124.5 255.3 125.4 254.4 126.5 254.4C127.6 254.4 128.5 255.3 128.5 256.4V274.1C128.5 275.2 127.6 276.1 126.5 276.1C125.4 276.1 124.5 275.2 124.5 274.1Z" fill="#3DDC84"/>
<path d="M115.7 265.2C115.7 264.1 116.6 263.2 117.7 263.2H135.3C136.4 263.2 137.3 264.1 137.3 265.2C137.3 266.3 136.4 267.2 135.3 267.2H117.6C116.6 267.2 115.7 266.3 115.7 265.2Z" fill="#3DDC84"/>
<path d="M124.5 274.1V256.4C124.5 255.3 125.4 254.4 126.5 254.4C127.6 254.4 128.5 255.3 128.5 256.4V274.1C128.5 275.2 127.6 276.1 126.5 276.1C125.4 276.1 124.5 275.2 124.5 274.1Z" fill="#3DDC84"/>
<path d="M115.7 265.2C115.7 264.1 116.6 263.2 117.7 263.2H135.3C136.4 263.2 137.3 264.1 137.3 265.2C137.3 266.3 136.4 267.2 135.3 267.2H117.6C116.6 267.2 115.7 266.3 115.7 265.2Z" fill="#3DDC84"/>
<circle cx="214.899" cy="139" r="96" fill="#3DDC84"/>
<path d="M253.099 113.382H176.699V176.082H253.099V113.382Z" fill="white"/>
<path d="M233.599 83.8819L239.999 73.0819C240.399 72.4819 240.099 71.6819 239.499 71.2819C238.899 70.8819 237.999 71.1819 237.699 71.7819L231.299 82.7819C226.399 80.5819 220.899 79.2819 214.899 79.2819C208.999 79.2819 203.499 80.4819 198.499 82.6819L192.099 71.6819C191.699 71.0819 190.899 70.7819 190.299 71.1819C189.699 71.5819 189.399 72.3819 189.799 72.9819L196.199 83.7819C185.299 89.6819 177.799 100.582 176.699 113.382H253.099C251.899 100.582 244.499 89.6819 233.599 83.8819Z" fill="white"/>
<path d="M197.999 129.082H176.699V207.582H214.899V156.782L197.999 129.082Z" fill="#3DDC84"/>
<path d="M197.999 129.082H176.699V207.582H214.899V156.782L200.499 149.982L202.999 144.882L194.999 143.382L197.999 129.082Z" fill="#1769E0"/>
<path d="M231.699 129.082H253.099V207.582H214.899V156.782L231.699 129.082Z" fill="#3DDC84"/>
<path d="M231.699 129.082H253.099V207.582H214.899V156.782L229.199 149.982L226.699 144.882L234.699 143.382L231.699 129.082Z" fill="#D7EFFE"/>
<path d="M233.499 93.6819H196.199C188.599 93.6819 181.999 99.4819 181.499 106.982C180.799 116.082 188.699 123.582 197.899 122.282C204.199 121.382 209.199 116.382 210.099 110.082C210.199 109.382 210.699 105.282 214.799 105.282C218.999 105.282 219.399 109.382 219.499 110.082C220.399 116.382 225.399 121.482 231.699 122.282C240.899 123.582 248.799 116.082 248.099 106.982C247.699 99.3819 241.099 93.6819 233.499 93.6819Z" fill="#D7EFFE"/>
<path fill-rule="evenodd" clip-rule="evenodd" d="M184.399 108.582C184.399 111.482 182.099 113.782 179.199 113.782C176.299 113.782 173.999 111.482 173.999 108.582C173.999 105.682 176.299 103.382 179.199 103.382C182.099 103.382 184.399 105.682 184.399 108.582ZM173.399 118.782C173.399 120.182 172.299 121.382 170.799 121.382C169.399 121.382 168.199 120.282 168.199 118.782C168.199 117.382 169.299 116.182 170.799 116.182C172.299 116.282 173.399 117.382 173.399 118.782ZM180.699 130.782C182.899 130.782 184.699 128.982 184.699 126.782C184.699 124.582 182.899 122.782 180.699 122.782C178.499 122.782 176.699 124.582 176.699 126.782C176.699 129.082 178.499 130.782 180.699 130.782Z" fill="#EA5426"/>
<path fill-rule="evenodd" clip-rule="evenodd" d="M175.299 80.8817C175.299 83.2817 173.299 85.2817 170.899 85.2817C168.499 85.2817 166.499 83.2817 166.499 80.8817C166.499 78.4817 168.499 76.4817 170.899 76.4817C173.399 76.4817 175.299 78.4817 175.299 80.8817ZM177.899 92.9817C179.399 92.9817 180.599 91.7817 180.599 90.2817C180.599 88.7817 179.399 87.5817 177.899 87.5817C176.399 87.5817 175.199 88.7817 175.199 90.2817C175.199 91.7817 176.399 92.9817 177.899 92.9817ZM169.999 103.282C172.199 103.282 173.999 101.482 173.999 99.2817C173.999 97.0817 172.199 95.2817 169.999 95.2817C167.799 95.2817 165.999 97.0817 165.999 99.2817C165.999 101.482 167.699 103.282 169.999 103.282Z" fill="#EA5426"/>
<path fill-rule="evenodd" clip-rule="evenodd" d="M189.899 129.782C189.899 128.082 188.599 126.782 186.899 126.782H170.899C169.299 126.782 167.899 128.082 167.899 129.782C167.899 131.482 167.899 189.782 167.899 189.782C167.899 195.882 172.799 200.782 178.899 200.782C184.999 200.782 189.899 195.882 189.899 189.782C189.899 189.782 189.899 131.482 189.899 129.782Z" fill="white"/>
<path fill-rule="evenodd" clip-rule="evenodd" d="M187.899 132.782H188.899C190.499 132.782 191.899 131.482 191.899 129.782C191.899 128.082 190.599 126.782 188.899 126.782H164.899C163.299 126.782 161.899 128.082 161.899 129.782C161.899 131.482 163.199 132.782 164.899 132.782H165.899V189.782C165.899 195.882 170.799 200.782 176.899 200.782C182.999 200.782 187.899 195.882 187.899 189.782V132.782Z" fill="#073042"/>
<path fill-rule="evenodd" clip-rule="evenodd" d="M247.299 102.382C249.599 102.382 251.399 104.182 251.399 106.482C251.399 108.782 249.599 110.582 247.299 110.582C244.999 110.582 243.199 108.782 243.199 106.482C243.299 104.182 245.099 102.382 247.299 102.382ZM259.799 114.782C261.999 114.782 263.799 116.582 263.799 118.782C263.799 120.982 261.999 122.782 259.799 122.782C257.599 122.782 255.799 120.982 255.799 118.782C255.799 116.582 257.599 114.782 259.799 114.782ZM252.999 126.782C252.999 124.582 251.199 122.782 248.999 122.782C246.799 122.782 244.999 124.582 244.999 126.782C244.999 128.982 246.799 130.782 248.999 130.782C251.199 130.782 252.999 129.082 252.999 126.782Z" fill="#EA5426"/>
<path fill-rule="evenodd" clip-rule="evenodd" d="M254.499 92.2818C254.499 90.7818 253.299 89.5818 251.799 89.5818C250.299 89.5818 249.099 90.7818 249.099 92.2818C249.099 93.7818 250.299 94.9818 251.799 94.9818C253.299 94.9818 254.499 93.7818 254.499 92.2818ZM265.499 102.082C265.499 99.3818 263.299 97.2818 260.699 97.2818C258.099 97.2818 255.899 99.4818 255.899 102.082C255.899 104.782 258.099 106.882 260.699 106.882C263.299 106.882 265.499 104.782 265.499 102.082Z" fill="#EA5426"/>
<path fill-rule="evenodd" clip-rule="evenodd" d="M239.799 189.782C239.799 195.882 244.699 200.782 250.799 200.782C256.899 200.782 261.799 195.882 261.799 189.782C261.799 189.782 261.799 131.482 261.799 129.782C261.799 128.082 260.499 126.782 258.799 126.782H242.799C241.199 126.782 239.799 128.082 239.799 129.782C239.799 131.482 239.799 189.782 239.799 189.782Z" fill="white"/>
<path fill-rule="evenodd" clip-rule="evenodd" d="M241.799 189.782C241.799 195.882 246.699 200.782 252.799 200.782C258.899 200.782 263.799 195.882 263.799 189.782V132.782H264.799C266.399 132.782 267.799 131.482 267.799 129.782C267.799 128.082 266.499 126.782 264.799 126.782H240.799C239.199 126.782 237.799 128.082 237.799 129.782C237.799 131.482 239.099 132.782 240.799 132.782H241.799V189.782Z" fill="#073042"/>
</svg>
