<svg width="151" height="152" viewBox="0 0 151 152" fill="none" xmlns="http://www.w3.org/2000/svg">
<path d="M22.6689 65.8013V72.6271C24.4945 72.6271 26.1897 73.3491 27.4611 74.629C30.1017 77.2871 30.1017 81.6189 27.4611 84.3099C26.5809 85.196 22.8645 88.051 18.1702 90.742C11.8784 94.3518 8.42286 95.0738 7.02107 95.205C7.15147 93.6298 7.99906 90.4138 10.77 85.2616C13.6714 79.8796 16.964 75.5478 17.8442 74.6618C19.1156 73.3819 20.8434 72.66 22.6363 72.66L22.6689 65.8013C19.1808 65.8013 15.7252 67.1468 13.0846 69.8049C9.56385 73.3163 -4.48664 93.958 1.87031 100.357C3.0113 101.506 4.64128 101.998 6.53207 101.998C15.1058 101.998 29.3845 91.989 32.2533 89.1011C37.5344 83.7848 37.5344 75.1212 32.2533 69.8049C29.6127 67.1139 26.1245 65.8013 22.6689 65.8013Z" fill="white"/>
<path d="M81.641 119.521C79.0004 116.863 75.5122 115.518 72.0567 115.518V122.343C73.8823 122.343 75.5774 123.065 76.8488 124.345C78.1202 125.625 78.8374 127.364 78.8374 129.169C78.8374 131.007 78.1202 132.714 76.8488 133.993C75.9686 134.879 72.2523 137.735 67.5579 140.425C61.2662 144.035 57.8106 144.757 56.4088 144.889C56.5392 143.313 57.3868 140.097 60.1578 134.945C63.0591 129.563 66.3517 125.231 67.2319 124.345C68.5033 123.065 70.2311 122.343 72.0241 122.343V115.518C68.5359 115.518 65.0803 116.863 62.4397 119.521C58.919 123.065 44.8685 143.674 51.258 150.106C52.399 151.255 54.029 151.747 55.9198 151.747C64.4935 151.747 78.7722 141.738 81.641 138.85C86.9548 133.501 86.9548 124.838 81.641 119.521Z" fill="white"/>
<path d="M125.717 48.6068C124.576 47.4582 124.576 45.5877 125.717 44.4719C126.858 43.3233 128.716 43.3233 129.824 44.4719C130.965 45.6205 130.965 47.491 129.824 48.6068C128.716 49.7554 126.858 49.7554 125.717 48.6068ZM102.962 25.7008C101.821 24.5522 101.821 22.6816 102.962 21.5658C104.103 20.4173 105.961 20.4173 107.07 21.5658C108.211 22.7144 108.211 24.585 107.07 25.7008C105.929 26.8493 104.103 26.8493 102.962 25.7008ZM94.3557 107.053L132.008 69.1501C139.767 59.9286 142.082 47.852 138.854 36.8584L150.101 33.8393C150.753 33.6752 151.144 32.9861 150.949 32.3297C150.786 31.6734 150.101 31.2796 149.449 31.4765L138.072 34.5613C136.344 29.9013 133.573 25.471 129.759 21.6315C125.945 17.7919 121.544 15.0025 116.915 13.2632L119.979 1.81018C120.142 1.15385 119.783 0.497512 119.131 0.300612C118.479 0.136529 117.827 0.497512 117.632 1.15385L114.633 12.4756C103.712 9.22676 91.7151 11.5567 82.5546 19.3671L44.9019 57.2704L94.3557 107.053Z" fill="white"/>
<path d="M56.9955 69.4443L85.3899 40.861C90.5732 35.6431 90.5732 27.1107 85.3899 21.8929C80.2065 16.675 71.7306 16.675 66.5472 21.8929L59.0167 29.4735L38.1528 50.4762" fill="#3DDC84"/>
<path d="M100.714 113.451L129.108 84.8673C134.292 79.6494 134.292 71.1171 129.108 65.8992C123.925 60.6814 115.449 60.6814 110.265 65.8992L102.735 73.4799L81.8711 94.4826" fill="#3DDC84"/>
<path d="M82.6182 38.0734C87.8016 32.8555 87.8016 24.3231 82.6182 19.1053C77.4349 13.8874 68.9589 13.8874 63.7756 19.1053L56.245 26.6859L34.5662 48.5091L30.6216 52.4799C29.7088 53.3988 29.7088 54.9411 30.6216 55.86L46.0739 71.4151C46.9867 72.334 48.5189 72.334 49.4643 71.4151L53.4088 67.4443L82.6182 38.0734Z" fill="black"/>
<path d="M132.01 87.7921C137.193 82.5743 137.193 74.0419 132.01 68.824C126.826 63.6062 118.35 63.6062 113.167 68.824L105.637 76.4047L83.9578 98.2278L80.0132 102.199C79.1004 103.118 79.1004 104.66 80.0132 105.579L95.4655 121.134C96.3783 122.053 97.9105 122.053 98.8558 121.134L102.8 117.163L132.01 87.7921Z" fill="black"/>
</svg>
