<svg width="122" height="116" viewBox="0 0 122 116" fill="none" xmlns="http://www.w3.org/2000/svg">
<path d="M0.414062 115.386L58.3659 57.502L115.935 115.386H0.414062Z" fill="black"/>
<path d="M0.398438 0H58.3502L0.398438 57.502V0Z" fill="black"/>
<path d="M58.3663 0L0.414551 57.502V115.386L58.3663 57.502L115.935 0H58.3663Z" fill="white"/>
<path d="M98.7687 88.7941C98.004 88.0194 98.0077 86.7635 98.7864 85.9969C99.5651 85.2302 100.818 85.2401 101.587 86.019C102.352 86.7937 102.348 88.0494 101.569 88.8161C100.791 89.5828 99.5334 89.5687 98.7687 88.7941ZM83.4034 73.2287C82.6387 72.4541 82.6424 71.1982 83.4211 70.4315C84.1998 69.6648 85.453 69.6748 86.2219 70.4537C86.9866 71.2283 86.9828 72.4841 86.2041 73.2508C85.4254 74.0175 84.1723 74.0076 83.4034 73.2287ZM107.743 80.9518L115.393 78.9709C115.831 78.8567 116.094 78.4052 115.979 77.9675C115.864 77.5298 115.412 77.2658 114.974 77.38L107.227 79.3895C106.069 76.2302 104.208 73.2376 101.63 70.6257C99.0518 68.0138 96.0821 66.113 92.9355 64.9121L95.0576 57.2047C95.1781 56.7688 94.9203 56.3132 94.4837 56.1921C94.0471 56.0711 93.5913 56.3279 93.4707 56.7638L91.3786 64.3747C83.9783 62.128 75.8268 63.6429 69.5737 68.8479L102.954 102.662C108.258 96.488 109.891 88.3694 107.743 80.9518Z" fill="#EFF7CF"/>
</svg>
