<svg width="40" height="40" viewBox="0 0 40 40" fill="none" xmlns="http://www.w3.org/2000/svg">
<path d="M20.0008 0C8.95468 0 0 8.95432 0 20C0 31.0473 8.95468 40 20.0008 40C31.0453 40 40 31.0473 40 20C40 8.95513 31.0445 0 20.0008 0Z" fill="black"/>
<path fill-rule="evenodd" clip-rule="evenodd" d="M10.75 27.3596H16.2649V27.0451L14.1807 24.4845C14.1807 24.4845 14.0623 24.2483 14.0621 23.7127C14.0619 23.1772 14.0621 16.7758 14.0621 16.7758L18.8846 27.3596H19.4575L23.5939 16.7758V25.2964C23.5939 25.2964 23.6368 25.4039 23.5384 25.5243C23.44 25.6447 21.9632 27.0874 21.9632 27.0874V27.4H29.2196V27.0891L27.6897 25.5461C27.6897 25.5461 27.6181 25.6566 27.6012 25.2481C27.5844 24.8396 27.6012 14.7047 27.6012 14.7047C27.6012 14.7047 27.6169 14.4765 27.7375 14.3704C27.858 14.2643 29.25 12.9195 29.25 12.9195V12.6H24.1413L20.4981 21.7414L16.3562 12.6H10.9879V12.9209L12.8428 15.1651C12.8428 15.1651 12.9847 15.3376 12.9615 15.7605C12.9384 16.1834 12.9615 23.8971 12.9615 23.8971C12.9615 23.8971 12.9808 24.3245 12.8428 24.4845C12.7047 24.6446 10.75 27.0451 10.75 27.0451" fill="white"/>
</svg>
