<svg width="48" height="48" viewBox="0 0 48 48" fill="none" xmlns="http://www.w3.org/2000/svg">
<circle cx="24" cy="24" r="23" fill="none" stroke="#073042" stroke-width="2"/>
<path d="M33.3333 12H14.6667C13.1867 12 12 13.2 12 14.6667V33.3333C12 34.8 13.1867 36 14.6667 36H33.3333C34.8 36 36 34.8 36 33.3333V14.6667C36 13.2 34.8133 12 33.3333 12ZM33.3333 33.3333H14.6667V17.3333H33.3333V33.3333ZM26 25.3333C26 26.44 25.1067 27.3333 24 27.3333C22.8933 27.3333 22 26.44 22 25.3333C22 24.2267 22.8933 23.3333 24 23.3333C25.1067 23.3333 26 24.2267 26 25.3333ZM24 20C20.36 20 17.2533 22.2133 16 25.3333C17.2533 28.4533 20.36 30.6667 24 30.6667C27.64 30.6667 30.7467 28.4533 32 25.3333C30.7467 22.2133 27.64 20 24 20ZM24 28.6667C22.16 28.6667 20.6667 27.1733 20.6667 25.3333C20.6667 23.4933 22.16 22 24 22C25.84 22 27.3333 23.4933 27.3333 25.3333C27.3333 27.1733 25.84 28.6667 24 28.6667Z" fill="#073042"/>
</svg>
