<svg width="122" height="145" viewBox="0 0 122 145" fill="none" xmlns="http://www.w3.org/2000/svg">
<path d="M45.8471 18.2954H12.4623C5.75071 18.2954 0.25 23.71 0.25 30.3505C0.25 36.9569 5.33556 42.3715 12.0471 42.3715H46.0892L45.8471 18.2954Z" fill="black"/>
<path d="M121.75 125.426H33.3927H12.4623C5.75071 125.426 0.250001 120.012 0.250001 113.405V30.314C0.250001 30.314 0.215405 42.369 13.258 42.369H103.899C103.899 42.369 121.75 40.8707 121.75 53.9473C121.75 69.8164 121.75 126.346 121.75 125.426Z" fill="white"/>
<path d="M70.7568 82.861C73.3515 80.8859 75.0467 77.787 75.0467 74.2794C75.0467 68.4222 70.3071 63.6546 64.4258 63.4503C64.5642 63.4503 64.668 63.4163 64.8064 63.4163C65.4637 63.4163 66.121 63.4844 66.7437 63.5865V56.7077C66.7437 55.5498 65.8096 54.6304 64.6334 54.6304C63.4571 54.6304 62.5231 55.5498 62.5231 56.7077V63.5184C57.1607 64.2676 53.0438 68.7627 53.0438 74.2454C53.0438 77.8891 54.8774 81.1243 57.7143 83.0653L37.5796 125.394H50.7259L60.0322 105.813C61.762 102.204 66.9513 102.204 68.6811 105.779L78.2641 125.394H91.5488L70.7568 82.861ZM64.0453 80.954C60.3089 80.954 57.2645 77.9573 57.2645 74.2794C57.2645 70.6016 60.3089 67.6049 64.0453 67.6049C67.7816 67.6049 70.826 70.6016 70.826 74.2794C70.826 77.9573 67.7816 80.954 64.0453 80.954Z" fill="#5F6368"/>
<path d="M60.4112 67.6049C64.1476 67.6049 67.192 70.6016 67.192 74.2794C67.192 77.9572 64.1476 80.954 60.4112 80.954C56.6749 80.954 53.6305 77.9572 53.6305 74.2794C53.6305 70.5676 56.6749 67.6049 60.4112 67.6049ZM63.1097 63.5865V56.7077C63.1097 55.5498 62.1756 54.6304 60.9994 54.6304C59.8231 54.6304 58.889 55.5498 58.889 56.7077V63.5184C53.5267 64.2676 49.3752 68.7968 49.3752 74.2794C49.3752 77.9232 51.2088 81.1583 54.0456 83.0994L28.6178 136.428C26.7842 140.31 29.6557 144.805 34.0493 144.805C36.3672 144.805 38.4776 143.477 39.4809 141.4L56.3981 105.813C58.1279 102.204 63.3173 102.204 65.0471 105.779L82.3449 141.161C83.3482 143.204 85.4239 144.498 87.7072 144.498C92.1009 144.498 95.0069 139.969 93.0696 136.087L67.1228 82.861C69.7175 80.8859 71.4127 77.787 71.4127 74.2794C71.4127 69.2054 67.8839 64.9827 63.1097 63.7909" fill="black"/>
<path d="M85.39 24.2231H38.6167V32.6344H85.39V24.2231Z" fill="white"/>
<path d="M78.5753 31.6449C76.8109 31.6449 75.3925 30.2487 75.3925 28.512C75.3925 26.7752 76.8109 25.379 78.5753 25.379C80.3397 25.379 81.7581 26.7752 81.7581 28.512C81.7581 30.2487 80.3397 31.6449 78.5753 31.6449ZM43.4261 31.6449C41.6618 31.6449 40.2433 30.2487 40.2433 28.512C40.2433 26.7752 41.6618 25.379 43.4261 25.379C45.1905 25.379 46.6089 26.7752 46.6089 28.512C46.6089 30.2487 45.1905 31.6449 43.4261 31.6449ZM79.717 12.8132L86.0826 1.98403C86.4631 1.37106 86.221 0.553771 85.5982 0.213232C84.9755 -0.16136 84.1452 0.0770169 83.7993 0.689986L77.3645 11.6553C72.4173 9.40777 66.9166 8.18183 61.0007 8.18183C55.1195 8.18183 49.5842 9.40777 44.637 11.6213L38.2368 0.655932C37.8562 0.0429631 37.0605 -0.195414 36.4378 0.179178C35.8151 0.553771 35.5729 1.33701 35.9535 1.94998L42.3191 12.7791C31.3868 18.6364 23.9142 29.5336 22.8071 42.3719H99.1943C98.0873 29.5336 90.6492 18.6364 79.717 12.8132Z" fill="#3DDC84"/>
<path d="M110.748 65.4263H105.697C105.351 65.4263 105.074 65.6987 105.074 66.0393L104.936 144.023C104.936 144.363 105.212 144.636 105.558 144.636L110.713 144.67C116.767 144.67 121.714 139.8 121.714 133.84V133.806V55.3123V54.5972C121.749 60.5566 116.802 65.4263 110.748 65.4263Z" fill="black"/>
</svg>
