<svg width="180" height="268" viewBox="0 0 180 268" fill="none" xmlns="http://www.w3.org/2000/svg">
<path d="M179.707 8.70711C180.098 8.31658 180.098 7.68342 179.707 7.29289L173.343 0.928932C172.953 0.538406 172.319 0.538406 171.929 0.928932C171.538 1.31946 171.538 1.95262 171.929 2.34315L177.586 8L171.929 13.6569C171.538 14.0474 171.538 14.6805 171.929 15.0711C172.319 15.4616 172.953 15.4616 173.343 15.0711L179.707 8.70711ZM85.6943 8.00001L85.6943 9.00001L85.6943 8.00001ZM75.6943 18L76.6943 18L75.6943 18ZM179 7L85.6943 7.00001L85.6943 9.00001L179 9L179 7ZM65.6941 82.4995L8.7424e-08 82.4995L-8.74215e-08 84.4995L65.6941 84.4995L65.6941 82.4995ZM74.6943 18L74.6941 73.4995L76.6941 73.4995L76.6943 18L74.6943 18ZM65.6941 84.4995C71.7692 84.4995 76.6941 79.5747 76.6941 73.4995L74.6941 73.4995C74.6941 78.4701 70.6647 82.4995 65.6941 82.4995L65.6941 84.4995ZM85.6943 7.00001C79.6192 7.00001 74.6943 11.9248 74.6943 18L76.6943 18C76.6943 13.0294 80.7238 9.00001 85.6943 9.00001L85.6943 7.00001Z" fill="#EBF7FE"/>
<path d="M179.707 259.293C180.098 259.683 180.098 260.317 179.707 260.707L173.343 267.071C172.953 267.462 172.319 267.462 171.929 267.071C171.538 266.681 171.538 266.047 171.929 265.657L177.586 260L171.929 254.343C171.538 253.953 171.538 253.319 171.929 252.929C172.319 252.538 172.953 252.538 173.343 252.929L179.707 259.293ZM66.0001 131L66.0001 130L66.0001 131ZM76.0001 141L77.0001 141L76.0001 141ZM86 260L86 261L86 260ZM76 250L77 250L76 250ZM179 261L86 261L86 259L179 259L179 261ZM66.0001 132L8.7424e-08 132L-8.74216e-08 130L66.0001 130L66.0001 132ZM75 250L75.0001 141L77.0001 141L77 250L75 250ZM66.0001 130C72.0752 130 77.0001 134.925 77.0001 141L75.0001 141C75.0001 136.029 70.9706 132 66.0001 132L66.0001 130ZM86 261C79.9249 261 75 256.075 75 250L77 250C77 254.971 81.0294 259 86 259L86 261Z" fill="#EBF7FE"/>
<path d="M179.707 134.707C180.098 134.317 180.098 133.683 179.707 133.293L173.343 126.929C172.953 126.538 172.319 126.538 171.929 126.929C171.538 127.319 171.538 127.953 171.929 128.343L177.586 134L171.929 139.657C171.538 140.047 171.538 140.681 171.929 141.071C172.319 141.462 172.953 141.462 173.343 141.071L179.707 134.707ZM85.6943 107.5L85.6943 106.5L85.6943 107.5ZM95.6943 117.5L96.6943 117.5L95.6943 117.5ZM95.6943 124L96.6943 124L95.6943 124ZM179 133L105.694 133L105.694 135L179 135L179 133ZM85.6943 106.5L2.40416e-06 106.5L2.22932e-06 108.5L85.6943 108.5L85.6943 106.5ZM96.6943 124L96.6943 117.5L94.6943 117.5L94.6943 124L96.6943 124ZM85.6943 108.5C90.6649 108.5 94.6943 112.529 94.6943 117.5L96.6943 117.5C96.6943 111.424 91.7694 106.5 85.6943 106.5L85.6943 108.5ZM105.694 133C100.724 133 96.6943 128.971 96.6943 124L94.6943 124C94.6943 130.075 99.6192 135 105.694 135L105.694 133Z" fill="#EBF7FE"/>
</svg>
