<svg width="40" height="40" viewBox="0 0 40 40" fill="none" xmlns="http://www.w3.org/2000/svg">
<path d="M20.0008 0C8.95468 0 0 8.95432 0 20C0 31.0473 8.95468 40 20.0008 40C31.0453 40 40 31.0473 40 20C40 8.95513 31.0445 0 20.0008 0Z" fill="#1DA1F2"/>
<path fill-rule="evenodd" clip-rule="evenodd" d="M29.5 14.1984C28.8007 14.5036 28.0503 14.7106 27.262 14.803C28.067 14.3282 28.6832 13.5752 28.9752 12.6807C28.2201 13.1203 27.3866 13.4396 26.4985 13.6126C25.7874 12.8654 24.7758 12.4 23.6538 12.4C21.5013 12.4 19.756 14.1189 19.756 16.2377C19.756 16.5382 19.7904 16.8317 19.8569 17.1124C16.618 16.9522 13.746 15.4239 11.8238 13.1016C11.4878 13.6676 11.2966 14.327 11.2966 15.031C11.2966 16.3628 11.9853 17.538 13.0301 18.2255C12.3913 18.2045 11.7905 18.0315 11.2646 17.7438V17.7917C11.2646 19.6509 12.6086 21.2026 14.3907 21.5558C14.0642 21.6423 13.7199 21.6903 13.3637 21.6903C13.112 21.6903 12.8686 21.6657 12.63 21.6189C13.1262 23.1449 14.5652 24.2546 16.2702 24.285C14.9368 25.314 13.2557 25.9255 11.4296 25.9255C11.115 25.9255 10.8051 25.9068 10.5 25.8729C12.2251 26.9639 14.2732 27.6 16.4744 27.6C23.6444 27.6 27.5636 21.7511 27.5636 16.6786L27.5505 16.1816C28.3163 15.6437 28.9788 14.9678 29.5 14.1984Z" fill="white"/>
</svg>
