<svg width="40" height="40" viewBox="0 0 40 40" fill="none" xmlns="http://www.w3.org/2000/svg">
<path d="M20.0008 0C8.95468 0 0 8.95432 0 20C0 31.0473 8.95468 40 20.0008 40C31.0453 40 40 31.0473 40 20C40 8.95513 31.0445 0 20.0008 0Z" fill="#FF0000"/>
<path d="M26.16 12.51C22.0681 11.83 17.8919 11.83 13.8 12.51C11.46 13 10 14.51 10 16.48V23.48C10 25.48 11.46 26.97 13.84 27.48C15.8755 27.8227 17.9358 27.9966 20 28C22.0705 27.9995 24.1374 27.8289 26.18 27.49C28.5 27.05 30 25.49 30 23.49V16.49C30 14.5 28.5 12.94 26.16 12.51ZM23.26 20.45L18.26 23.45C18.1818 23.4976 18.0916 23.5219 18 23.52C17.9132 23.5193 17.8277 23.4988 17.75 23.46C17.6714 23.4123 17.6068 23.3445 17.5629 23.2637C17.519 23.1829 17.4973 23.0919 17.5 23V17C17.5008 16.9114 17.5241 16.8245 17.5679 16.7475C17.6116 16.6705 17.6743 16.606 17.75 16.56C17.8284 16.518 17.916 16.496 18.005 16.496C18.094 16.496 18.1816 16.518 18.26 16.56L23.26 19.56C23.3323 19.6061 23.3918 19.6696 23.433 19.7448C23.4742 19.8199 23.4958 19.9043 23.4958 19.99C23.4958 20.0757 23.4742 20.16 23.433 20.2352C23.3918 20.3103 23.3323 20.3739 23.26 20.42V20.45Z" fill="white"/>
</svg>
